<svg width="800" height="600" xmlns="http://www.w3.org/2000/svg">
      <rect width="100%" height="100%" fill="#f9f9f9" />

          <text x="400" y="50" font-family="Arial" font-size="24" text-anchor="middle" fill="#333">Dashboard Inmobiliaria Demo</text>
          <line x1="80" y1="500" x2="750" y2="500" stroke="#333" stroke-width="2" />
          <line x1="80" y1="500" x2="80" y2="100" stroke="#333" stroke-width="2" />
          <rect x="100" y="358" width="50" height="142" fill="#2C3E50" opacity="0.8" /><text x="125.0" y="520" font-family="Arial" font-size="12" text-anchor="middle">Ene</text><text x="125.0" y="348" font-family="Arial" font-size="12" text-anchor="middle" font-weight="bold">142</text><rect x="180" y="252" width="50" height="248" fill="#2C3E50" opacity="0.8" /><text x="205.0" y="520" font-family="Arial" font-size="12" text-anchor="middle">Feb</text><text x="205.0" y="242" font-family="Arial" font-size="12" text-anchor="middle" font-weight="bold">248</text><rect x="260" y="271" width="50" height="229" fill="#2C3E50" opacity="0.8" /><text x="285.0" y="520" font-family="Arial" font-size="12" text-anchor="middle">Mar</text><text x="285.0" y="261" font-family="Arial" font-size="12" text-anchor="middle" font-weight="bold">229</text><rect x="340" y="398" width="50" height="102" fill="#2C3E50" opacity="0.8" /><text x="365.0" y="520" font-family="Arial" font-size="12" text-anchor="middle">Abr</text><text x="365.0" y="388" font-family="Arial" font-size="12" text-anchor="middle" font-weight="bold">102</text><rect x="420" y="323" width="50" height="177" fill="#2C3E50" opacity="0.8" /><text x="445.0" y="520" font-family="Arial" font-size="12" text-anchor="middle">May</text><text x="445.0" y="313" font-family="Arial" font-size="12" text-anchor="middle" font-weight="bold">177</text><rect x="500" y="309" width="50" height="191" fill="#2C3E50" opacity="0.8" /><text x="525.0" y="520" font-family="Arial" font-size="12" text-anchor="middle">Jun</text><text x="525.0" y="299" font-family="Arial" font-size="12" text-anchor="middle" font-weight="bold">191</text>

      <text x="400" y="580" font-family="Arial" font-size="12" text-anchor="middle" fill="#999">Generado por Chatboc Intelligence</text>
    </svg>